<svg xmlns="http://www.w3.org/2000/svg" xmlns:xlink="http://www.w3.org/1999/xlink" version="1.1" x="0px" y="0px" viewBox="0 0 100 125" enable-background="new 0 0 100 100" xml:space="preserve"><path fill-rule="evenodd" clip-rule="evenodd" d="M67.904,19.538l-55.1,16.65l4.199,12.45l56-17.05L67.904,19.538z M70.854,24.438  l19.201,45.35c0.066,0.066,0.066,0.184,0,0.351c-0.033,0.133-0.117,0.199-0.25,0.199l-19.602,6.051  c-0.5,0.267-0.932,0.399-1.299,0.399l-13.551,4.15l-0.6,0.25l-24.801,7.649c-0.232,0-0.383-0.1-0.449-0.3l-2.301-6.8  c0-0.3-0.066-0.533-0.199-0.7l-15.15-44.95c-0.066-0.167-0.066-0.3,0-0.4l0.25-0.25l55.9-16.9c0.268-0.067,0.449,0.05,0.551,0.35  l2.25,5.45L70.854,24.438z M67.703,8.987l27.25,62.9c0.068,0.3,0.033,0.55-0.1,0.75c-0.066,0.199-0.25,0.35-0.549,0.449  L32.104,92.938c-0.967,0.333-1.832,0.5-2.6,0.5c-1.834,0-3.018-0.884-3.551-2.65l-20.898-62.8c-0.068-0.233-0.051-0.483,0.049-0.75  c0.168-0.233,0.334-0.383,0.5-0.45l20.951-6.25l-1.15-3.8c-0.066-0.2-0.051-0.417,0.049-0.65c0.102-0.167,0.268-0.316,0.5-0.45  l3.852-1.2c-0.467-1.533-0.301-3.033,0.5-4.5c0.699-1.467,1.898-2.5,3.6-3.1c1.633-0.5,3.217-0.316,4.75,0.55  c1.367,0.667,2.35,1.75,2.949,3.25l3.951-1.2c0.232-0.033,0.449,0.017,0.648,0.15c0.201,0.067,0.318,0.217,0.352,0.45l1.398,4.15  l18.701-5.8C67.188,8.288,67.537,8.487,67.703,8.987z M68.654,75.987c0.5-0.066,0.867-0.184,1.1-0.35l19.4-6l-15.85-37.2l-56.051,17  l10.5,31.149c0.199,0.301,0.301,0.634,0.301,1l2.199,6.25l24.15-7.5l0.65-0.25L68.654,75.987z M66.404,10.337l-18.301,5.6l0.5,1.7  c0.066,0.1,0.066,0.216,0,0.35c-0.066,0.1-0.166,0.167-0.299,0.2l-19.801,6.3l-0.15-0.05c-0.166-0.067-0.25-0.15-0.25-0.25l-0.6-2.1  l-20.449,6.15l20.549,62.05c0.301,0.934,0.934,1.4,1.9,1.4c0.5,0,1.184-0.134,2.051-0.4l61.35-19.6L66.404,10.337z M41.254,12.587  c-0.4,0.067-0.732-0.066-1-0.4c-0.1-0.2-0.184-0.467-0.25-0.8c-0.367-1.067-1.1-1.9-2.199-2.5c-1.102-0.6-2.201-0.717-3.301-0.35  c-1.268,0.367-2.15,1.117-2.65,2.25c-0.633,1.1-0.732,2.283-0.299,3.55l0.1,0.55c0.133,0.5-0.051,0.833-0.551,1l-3.799,1.25  l1.199,3.7c0.066,0.233,0.051,0.467-0.051,0.7c-0.066,0.033-0.115,0.1-0.148,0.2l0.5,1.75l18.898-6l-0.449-1.4  c-0.066,0-0.15-0.033-0.25-0.1c-0.199-0.066-0.35-0.233-0.449-0.5l-1.352-4.1L41.254,12.587z M38.354,11.888  c0.066,0.6,0.066,1.1,0,1.5c-0.033,0.3-0.117,0.533-0.25,0.7c-0.332,0.667-0.883,1.083-1.65,1.25c-0.232,0.1-0.516,0.15-0.85,0.15  c-0.467,0-0.867-0.083-1.199-0.25l-0.051-0.05l-0.5-0.3l-0.5-0.7c-0.166-0.2-0.266-0.4-0.299-0.6  c-0.168-0.767-0.084-1.483,0.25-2.15c0.365-0.667,0.898-1.117,1.6-1.35c0.666-0.2,1.332-0.117,2,0.25  C37.703,10.638,38.188,11.154,38.354,11.888z M35.154,10.888c-0.533,0.167-0.9,0.483-1.1,0.95c-0.201,0.533-0.25,1.05-0.15,1.55  c0,0.133,0.049,0.233,0.15,0.3l0.35,0.5l0.449,0.3c0.467,0.167,0.9,0.167,1.301,0c0.533-0.1,0.934-0.4,1.199-0.9  c0.066-0.1,0.1-0.233,0.1-0.4c0.102-0.333,0.102-0.7,0-1.1c-0.066-0.433-0.398-0.767-1-1C36.088,10.821,35.654,10.754,35.154,10.888  z"/><text x="0" y="115" fill="#000000" font-size="5px" font-weight="bold" font-family="'Helvetica Neue', Helvetica, Arial-Unicode, Arial, Sans-serif">Created by Saeful Muslim</text><text x="0" y="120" fill="#000000" font-size="5px" font-weight="bold" font-family="'Helvetica Neue', Helvetica, Arial-Unicode, Arial, Sans-serif">from the Noun Project</text></svg>